<?xml version="1.0" encoding="utf-8"?>
<!-- Generator: Adobe Illustrator 18.1.1, SVG Export Plug-In . SVG Version: 6.00 Build 0)  -->
<svg version="1.1"
	 id="svg2" xmlns:dc="http://purl.org/dc/elements/1.1/" xmlns:cc="http://creativecommons.org/ns#" xmlns:rdf="http://www.w3.org/1999/02/22-rdf-syntax-ns#" xmlns:svg="http://www.w3.org/2000/svg"
	 xmlns="http://www.w3.org/2000/svg" xmlns:xlink="http://www.w3.org/1999/xlink" x="0px" y="0px" viewBox="-313 169 396 432"
	 enable-background="new -313 169 396 432" xml:space="preserve">
<g>
	<path fill="#EE7622" d="M-112.9,218.7c-93.4,0-169,75.7-169,169s75.7,169,169,169s169-75.7,169-169S-19.5,218.7-112.9,218.7z
		 M-112.9,528.6c-77.8,0-140.9-63.1-140.9-140.9s63.1-140.9,140.9-140.9S28,309.9,28,387.7S-35.1,528.6-112.9,528.6z"/>
	<path id="path2993" fill="#EE7622" d="M-127.1,474c-20.8-2.1-30.2-5.6-38.9-14.2c-8.5-8.4-11.9-16.2-13.3-30.6
		c-0.3-3.4-0.6-21.8-0.6-45.4v-39.6l-1.6-1.6c-1.1-1.1-2.6-1.8-5-2.3c-3.9-0.8-5.7-2.2-4.8-3.8c0.5-0.9,2.5-0.9,22.3-0.9
		s21.7,0.1,22.3,0.9c1.1,1.7-0.8,3-5.9,3.7c-5.2,0.8-6.8,1.7-7.7,4.1c-0.8,2.3-0.8,74.4,0,81.8c0.8,7.1,2.4,14,4.1,17.3
		c2,4,6.5,8.6,10.3,10.6c10.5,5.6,29.8,6.7,43.3,2.5c6.2-1.9,8.4-3.2,12.1-6.7c4-3.8,6.2-8.2,7.8-15.5c1.2-5.5,1.3-6.4,1.6-57.2
		l0.3-51.6l1.3-3.2c2.6-6.5,6.7-10.2,13.2-11.8c2.6-0.7,6.7-0.9,19.1-0.9h15.8v1.7c0,2.1-0.8,2.5-7,3.4c-2.8,0.4-5.9,1-6.9,1.4
		c-3.6,1.5-3.5-0.8-3.5,56.5c0,53.3-0.2,60.1-2.2,68c-1.8,7-5.6,13.7-11,19c-10.2,10.2-23.6,14.1-49.8,14.4
		C-119,474.2-125.9,474.1-127.1,474L-127.1,474z"/>
</g>
</svg>
